#!OML:ASF I:\Actors\actors\Patient Classification 2\Patient 1\Session 1\actor1.ASF
:FULLY-SPECIFIED
:DEGREES
717
root -0.771685 18.7723 6.45329 5.94347 -12.5876 -1.08768
lowerback 15.7098 -1.92062 0.120762
upperback -1.79675 -2.32217 2.04578
thorax -10.7314 -1.03598 2.73518
lowerneck -16.1313 4.34843 7.00299
upperneck 9.4411 5.33299 -7.60602
head 5.88343 2.27754 -3.02992
rclavicle -2.08724e-014 5.56597e-015
rhumerus -33.1055 -31.7514 -12.9707
rradius 45.6689
rwrist 20.3618
rhand -20.8652 -42.7778
rfingers 7.12502
rthumb 5.50453 -72.6863
lclavicle -2.08724e-014 5.56597e-015
lhumerus -16.7563 45.6259 23.3037
lradius 40.0249
lwrist -13.0625
lhand -7.04126 -17.0573
lfingers 7.12502
lthumb 18.8311 12.0512
rfemur 2.18292 12.3863 14.284
rtibia -4.77083e-015
rfoot -18.0856 -14.1943
rtoes -4.04294
lfemur -4.75455 1.01874 -14.0621
ltibia 19.9364
lfoot -22.8208 15.5577
ltoes -54.2513
718
root -0.791862 18.765 6.47461 5.622 -12.2756 -1.17268
lowerback 15.4557 -1.88207 0.0677672
upperback -1.88462 -2.29064 1.97655
thorax -10.6839 -1.02113 2.67319
lowerneck -16.4047 4.26689 6.80733
upperneck 9.91352 5.23757 -7.33603
head 6.05747 2.23547 -2.91862
rclavicle -8.39865e-015 -3.97569e-016
rhumerus -33.6384 -31.5536 -13.8402
rradius 45.7953
rwrist 20.5905
rhand -21.0733 -42.4987
rfingers 7.12502
rthumb 5.30353 -72.4123
lclavicle -8.39865e-015 -3.97569e-016
lhumerus -17.535 45.0074 24.0561
lradius 40.4027
lwrist -12.3188
lhand -7.79754 -17.4048
lfingers 7.12502
lthumb 18.1036 11.7726
rfemur 2.71574 12.1183 14.553
rtibia -2.8625e-014
rfoot -18.1401 -14.1113
rtoes -4.13141
lfemur -4.37394 0.768996 -13.8925
ltibia 19.9686
lfoot -22.8434 15.5267
ltoes -54.4451
719
root -0.811542 18.7559 6.49602 5.30841 -11.9553 -1.29796
lowerback 15.0681 -1.83658 0.0342255
upperback -1.90172 -2.24477 1.94058
thorax -10.4798 -1.00248 2.62442
lowerneck -16.5652 4.20178 6.77206
upperneck 10.2004 5.15348 -7.26835
head 6.16605 2.1934 -2.89865
rclavicle -3.11595e-014 -8.34896e-015
rhumerus -34.1718 -31.3238 -14.7379
rradius 45.9719
rwrist 20.7737
rhand -21.0163 -42.6434
rfingers 7.12502
rthumb 5.35864 -72.5557
lclavicle -3.11595e-014 -8.34896e-015
lhumerus -18.3065 44.4087 24.9301
lradius 40.821
lwrist -11.5916
lhand -8.47763 -17.6698
lfingers 7.12502
lthumb 17.4492 11.567
rfemur 3.25271 11.8426 14.8572
rtibia 0
rfoot -18.2054 -13.994
rtoes -4.37263
lfemur -3.98174 0.529422 -13.6833
ltibia 19.9848
lfoot -22.8689 15.4729
ltoes -54.6183
720
root -0.831184 18.7463 6.5177 5.00306 -11.6326 -1.41262
lowerback 14.7656 -1.79465 -0.0336672
upperback -1.98865 -2.20659 1.91664
thorax -10.4006 -0.982518 2.6172
lowerneck -16.7124 4.20525 6.87282
upperneck 10.5719 5.15033 -7.29659
head 6.31207 2.18823 -2.92338
rclavicle 2.22887e-014 -2.14687e-014
rhumerus -34.7643 -30.9956 -15.6404
rradius 46.1717
rwrist 20.8693
rhand -20.8683 -42.7138
rfingers 7.12502
rthumb 5.50146 -72.6224
lclavicle 2.22887e-014 -2.14687e-014
lhumerus -19.3105 43.7164 25.7562
lradius 41.3933
lwrist -10.8615
lhand -9.01174 -17.8858
lfingers 7.12502
lthumb 16.9351 11.3959
rfemur 3.77361 11.5593 15.1484
rtibia -7.95139e-015
rfoot -18.2977 -13.8662
rtoes -4.36539
lfemur -3.59579 0.214765 -13.4989
ltibia 19.9963
lfoot -22.9291 15.5067
ltoes -54.7357
721
root -0.848208 18.737 6.54092 4.6713 -11.2667 -1.49564
lowerback 14.5058 -1.76734 -0.0578038
upperback -2.10823 -2.18187 1.86071
thorax -10.3845 -0.971411 2.55702
lowerneck -16.791 4.14499 6.81207
upperneck 10.9131 5.06786 -7.1092
head 6.42093 2.15752 -2.8616
rclavicle 6.01324e-015 2.18663e-015
rhumerus -35.4744 -30.6226 -16.5825
rradius 46.3924
rwrist 20.7675
rhand -20.8416 -42.7328
rfingers 7.12502
rthumb 5.52725 -72.6407
lclavicle 6.01324e-015 2.18663e-015
lhumerus -20.4269 43.0194 26.5831
lradius 42.075
lwrist -10.2085
lhand -9.43567 -18.1611
lfingers 7.12502
lthumb 16.527 11.1551
rfemur 4.32473 11.2289 15.4071
rtibia -2.06736e-014
rfoot -18.3748 -13.7814
rtoes -4.3871
lfemur -3.19804 -0.134388 -13.3558
ltibia 20.0134
lfoot -22.985 15.5395
ltoes -54.8616
722
root -0.862635 18.7276 6.5657 4.32662 -10.8915 -1.56092
lowerback 14.1808 -1.7441 -0.0692974
upperback -2.1974 -2.16079 1.80746
thorax -10.2967 -0.964028 2.48965
lowerneck -16.7636 4.00755 6.63219
upperneck 11.0997 4.90094 -6.88709
head 6.45322 2.0871 -2.77951
rclavicle 1.84124e-014 -4.77083e-015
rhumerus -36.2063 -30.3801 -17.5391
rradius 46.5788
rwrist 20.7639
rhand -20.923 -42.8899
rfingers 7.12502
rthumb 5.44874 -72.7998
lclavicle 1.84124e-014 -4.77083e-015
lhumerus -21.5581 42.2487 27.5412
lradius 42.794
lwrist -9.36063
lhand -10.1004 -18.4186
lfingers 7.12502
lthumb 15.8869 10.9497
rfemur 4.90453 10.8857 15.6329
rtibia -1.90833e-014
rfoot -18.4911 -13.6721
rtoes -4.3952
lfemur -2.77955 -0.463903 -13.2351
ltibia 20.0365
lfoot -23.0805 15.4671
ltoes -54.8691
